<mxfile host="app.diagrams.net" agent="Mozilla/5.0 (Windows NT 10.0; Win64; x64) AppleWebKit/537.36 (KHTML, like Gecko) Chrome/135.0.0.0 Safari/537.36" version="26.2.13">
  <diagram name="ページ1" id="R4Qgj17dR7J8SQ3KSej-">
    <mxGraphModel dx="1283" dy="527" grid="1" gridSize="10" guides="1" tooltips="1" connect="1" arrows="1" fold="1" page="1" pageScale="1" pageWidth="827" pageHeight="1169" background="none" math="0" shadow="0">
      <root>
        <mxCell id="0" />
        <mxCell id="1" parent="0" />
        <mxCell id="Lv2JCMqGwy53NPqVUun4-1" value="ユーザー" style="shape=umlActor;verticalLabelPosition=bottom;verticalAlign=top;html=1;outlineConnect=0;" parent="1" vertex="1">
          <mxGeometry x="150" y="235" width="30" height="60" as="geometry" />
        </mxCell>
        <mxCell id="oK5IkaAvBxvvAaiZbXU--9" value="本の検索" style="ellipse;whiteSpace=wrap;html=1;" parent="1" vertex="1">
          <mxGeometry x="344" y="30" width="140" height="70" as="geometry" />
        </mxCell>
        <mxCell id="oK5IkaAvBxvvAaiZbXU--10" value="本の貸出" style="ellipse;whiteSpace=wrap;html=1;" parent="1" vertex="1">
          <mxGeometry x="344" y="230" width="140" height="70" as="geometry" />
        </mxCell>
        <mxCell id="oK5IkaAvBxvvAaiZbXU--11" value="本の貸出予約" style="ellipse;whiteSpace=wrap;html=1;" parent="1" vertex="1">
          <mxGeometry x="344" y="330" width="140" height="70" as="geometry" />
        </mxCell>
        <mxCell id="oK5IkaAvBxvvAaiZbXU--12" value="書籍データの登録・削除" style="ellipse;whiteSpace=wrap;html=1;" parent="1" vertex="1">
          <mxGeometry x="344" y="430" width="140" height="70" as="geometry" />
        </mxCell>
        <mxCell id="oK5IkaAvBxvvAaiZbXU--17" value="" style="endArrow=none;html=1;rounded=0;entryX=0;entryY=0.5;entryDx=0;entryDy=0;exitX=1;exitY=0.3333333333333333;exitDx=0;exitDy=0;exitPerimeter=0;" parent="1" source="Lv2JCMqGwy53NPqVUun4-1" target="oK5IkaAvBxvvAaiZbXU--9" edge="1">
          <mxGeometry width="50" height="50" relative="1" as="geometry">
            <mxPoint x="180" y="160" as="sourcePoint" />
            <mxPoint x="230" y="110" as="targetPoint" />
          </mxGeometry>
        </mxCell>
        <mxCell id="oK5IkaAvBxvvAaiZbXU--18" value="" style="endArrow=none;html=1;rounded=0;entryX=0;entryY=0.5;entryDx=0;entryDy=0;exitX=1;exitY=0.3333333333333333;exitDx=0;exitDy=0;exitPerimeter=0;" parent="1" source="Lv2JCMqGwy53NPqVUun4-1" target="oK5IkaAvBxvvAaiZbXU--10" edge="1">
          <mxGeometry width="50" height="50" relative="1" as="geometry">
            <mxPoint x="190" y="150" as="sourcePoint" />
            <mxPoint x="354" y="115" as="targetPoint" />
          </mxGeometry>
        </mxCell>
        <mxCell id="oK5IkaAvBxvvAaiZbXU--19" value="" style="endArrow=none;html=1;rounded=0;entryX=0;entryY=0.5;entryDx=0;entryDy=0;exitX=1;exitY=0.3333333333333333;exitDx=0;exitDy=0;exitPerimeter=0;" parent="1" source="Lv2JCMqGwy53NPqVUun4-1" target="oK5IkaAvBxvvAaiZbXU--11" edge="1">
          <mxGeometry width="50" height="50" relative="1" as="geometry">
            <mxPoint x="200" y="160" as="sourcePoint" />
            <mxPoint x="364" y="125" as="targetPoint" />
          </mxGeometry>
        </mxCell>
        <mxCell id="oK5IkaAvBxvvAaiZbXU--21" value="管理者" style="shape=umlActor;verticalLabelPosition=bottom;verticalAlign=top;html=1;outlineConnect=0;" parent="1" vertex="1">
          <mxGeometry x="690" y="335" width="30" height="60" as="geometry" />
        </mxCell>
        <mxCell id="oK5IkaAvBxvvAaiZbXU--25" value="" style="endArrow=none;html=1;rounded=0;entryX=1;entryY=0.5;entryDx=0;entryDy=0;exitX=0;exitY=0.3333333333333333;exitDx=0;exitDy=0;exitPerimeter=0;" parent="1" source="oK5IkaAvBxvvAaiZbXU--21" target="oK5IkaAvBxvvAaiZbXU--12" edge="1">
          <mxGeometry width="50" height="50" relative="1" as="geometry">
            <mxPoint x="170" y="405" as="sourcePoint" />
            <mxPoint x="354" y="375" as="targetPoint" />
          </mxGeometry>
        </mxCell>
        <mxCell id="oK5IkaAvBxvvAaiZbXU--26" value="NDLサーチAPI" style="shape=umlActor;verticalLabelPosition=bottom;verticalAlign=top;html=1;outlineConnect=0;" parent="1" vertex="1">
          <mxGeometry x="690" y="135" width="30" height="60" as="geometry" />
        </mxCell>
        <mxCell id="oK5IkaAvBxvvAaiZbXU--27" value="" style="endArrow=none;html=1;rounded=0;entryX=1;entryY=0.5;entryDx=0;entryDy=0;exitX=0;exitY=0.3333333333333333;exitDx=0;exitDy=0;exitPerimeter=0;" parent="1" source="oK5IkaAvBxvvAaiZbXU--26" target="oK5IkaAvBxvvAaiZbXU--9" edge="1">
          <mxGeometry width="50" height="50" relative="1" as="geometry">
            <mxPoint x="170" y="235" as="sourcePoint" />
            <mxPoint x="478" y="95" as="targetPoint" />
          </mxGeometry>
        </mxCell>
        <mxCell id="oK5IkaAvBxvvAaiZbXU--28" value="" style="endArrow=none;html=1;rounded=0;entryX=1;entryY=0.5;entryDx=0;entryDy=0;exitX=0;exitY=0.3333333333333333;exitDx=0;exitDy=0;exitPerimeter=0;" parent="1" source="oK5IkaAvBxvvAaiZbXU--26" target="oK5IkaAvBxvvAaiZbXU--12" edge="1">
          <mxGeometry width="50" height="50" relative="1" as="geometry">
            <mxPoint x="700" y="120" as="sourcePoint" />
            <mxPoint x="494" y="75" as="targetPoint" />
          </mxGeometry>
        </mxCell>
        <mxCell id="oK5IkaAvBxvvAaiZbXU--29" value="書影" style="edgeLabel;html=1;align=center;verticalAlign=middle;resizable=0;points=[];" parent="oK5IkaAvBxvvAaiZbXU--28" connectable="0" vertex="1">
          <mxGeometry x="-0.0392" relative="1" as="geometry">
            <mxPoint y="1" as="offset" />
          </mxGeometry>
        </mxCell>
        <mxCell id="oK5IkaAvBxvvAaiZbXU--34" value="本のレビュー" style="ellipse;whiteSpace=wrap;html=1;" parent="1" vertex="1">
          <mxGeometry x="344" y="130" width="140" height="70" as="geometry" />
        </mxCell>
        <mxCell id="oK5IkaAvBxvvAaiZbXU--35" value="" style="endArrow=none;html=1;rounded=0;entryX=0;entryY=0.5;entryDx=0;entryDy=0;exitX=1;exitY=0.3333333333333333;exitDx=0;exitDy=0;exitPerimeter=0;" parent="1" source="Lv2JCMqGwy53NPqVUun4-1" target="oK5IkaAvBxvvAaiZbXU--34" edge="1">
          <mxGeometry width="50" height="50" relative="1" as="geometry">
            <mxPoint x="190" y="150" as="sourcePoint" />
            <mxPoint x="354" y="275" as="targetPoint" />
          </mxGeometry>
        </mxCell>
      </root>
    </mxGraphModel>
  </diagram>
</mxfile>
